<?xml version="1.0" standalone="no"?>
<!DOCTYPE svg PUBLIC "-//W3C//DTD SVG 20010904//EN" "http://www.w3.org/TR/2001/REC-SVG-20010904/DTD/svg10.dtd">
<svg version="1.0" xmlns="http://www.w3.org/2000/svg"
  width="862.000000pt" height="781.000000pt" viewBox="0 0 862.000000 781.000000"
  preserveAspectRatio="xMidYMid meet">

  <g transform="translate(0.000000,781.000000) scale(0.100000,-0.100000)"
    fill="#FFF" stroke="none">
    <path
      d="M3083 6423 c-53 -4 -53 -4 -53 -39 l0 -34 65 0 c36 0 65 -2 65 -5 0
-3 -16 -37 -35 -75 l-35 -70 48 0 c79 0 108 -55 56 -106 -23 -24 -31 -26 -91
-22 -65 3 -66 2 -76 -25 -5 -16 -6 -31 -3 -35 13 -12 144 -14 178 -3 55 18 90
62 96 119 6 64 -16 106 -62 123 l-35 13 45 83 46 83 -79 -2 c-43 -1 -102 -3
-130 -5z" />
    <path
      d="M4846 6308 c-10 -40 -7 -44 49 -63 30 -11 55 -22 55 -25 0 -3 -25
-28 -55 -54 -30 -26 -55 -50 -55 -55 0 -4 16 -13 35 -20 20 -7 42 -23 51 -36
14 -21 14 -26 0 -53 -23 -45 -64 -50 -133 -16 l-56 27 -19 -23 c-25 -31 -20
-40 38 -70 70 -36 171 -36 209 0 62 58 71 121 25 174 l-30 34 71 57 c39 31 69
59 66 61 -7 7 -220 84 -232 84 -7 0 -15 -10 -19 -22z" />
    <path
      d="M4239 5987 c-67 -19 -131 -60 -181 -116 l-45 -50 -29 30 c-16 17 -58
44 -94 62 -60 30 -72 32 -170 32 -96 0 -110 -3 -165 -29 -222 -110 -289 -386
-141 -590 11 -16 116 -108 231 -205 215 -180 308 -266 362 -336 17 -22 33 -38
36 -35 12 14 419 1231 413 1237 -12 13 -171 13 -217 0z" />
    <path
      d="M1687 5790 c-59 -16 -112 -32 -116 -34 -12 -8 -1 -57 14 -63 7 -2 37
3 66 11 29 9 54 15 55 13 1 -1 -6 -34 -17 -72 -25 -92 -25 -97 7 -85 43 17 81
12 98 -12 22 -31 20 -52 -7 -84 -18 -21 -35 -27 -82 -33 l-60 -6 0 -35 c0 -31
3 -35 28 -38 46 -6 136 26 175 63 35 32 37 36 37 98 0 56 -4 69 -24 91 -14 15
-41 29 -62 32 l-37 6 24 77 c25 81 29 101 17 100 -5 0 -57 -14 -116 -29z" />
    <path
      d="M2487 5651 c-12 -153 -63 -269 -279 -628 -161 -270 -187 -323 -195
-398 l-6 -55 139 0 c77 0 178 5 224 11 103 13 402 14 485 1 33 -5 61 -9 62 -8
3 3 -53 805 -57 808 -3 2 -45 30 -95 63 -106 71 -202 163 -243 234 l-29 52 -6
-80z" />
    <path
      d="M5534 5641 c-103 -26 -199 -111 -231 -204 -24 -70 -22 -169 5 -229
l20 -46 -51 27 c-45 23 -63 26 -147 26 -87 0 -100 -3 -148 -29 -222 -123 -222
-439 0 -562 48 -26 61 -29 148 -29 84 0 102 3 148 27 l52 27 -6 -27 c-15 -68
-39 -127 -70 -173 -19 -28 -34 -53 -34 -55 0 -2 27 14 61 36 34 22 70 42 80
45 10 4 19 14 19 23 0 9 11 40 24 67 l23 50 22 -42 c12 -24 23 -43 24 -43 1 0
47 11 102 25 116 30 277 46 380 38 l74 -6 11 29 c6 16 11 59 11 97 0 159 -115
289 -275 313 l-49 7 29 15 c51 25 105 85 135 147 52 109 33 250 -46 343 -67
78 -217 127 -311 103z" />
    <path
      d="M2400 4275 c-80 -8 -155 -17 -167 -20 l-23 -5 0 -869 0 -868 48 -6
c131 -17 188 -19 281 -7 l101 12 0 699 0 699 68 0 c207 0 291 -184 186 -406
-28 -59 -123 -169 -155 -179 -10 -4 -19 -11 -19 -16 0 -10 336 -788 344 -796
12 -13 241 -21 348 -12 67 5 124 11 125 13 2 2 -82 172 -186 377 l-189 374 48
42 c62 56 117 139 148 227 35 99 37 267 4 372 -47 152 -171 270 -347 329 -141
47 -383 63 -615 40z" />
    <path
      d="M5790 4284 c-215 -26 -369 -101 -505 -245 -171 -183 -255 -471 -225
-775 40 -403 239 -660 585 -756 70 -19 104 -22 270 -21 171 0 200 2 285 25 52
14 111 32 131 41 l37 15 -9 47 c-15 79 -28 126 -62 218 -27 76 -34 88 -52 84
-11 -2 -58 -15 -105 -28 -108 -29 -267 -32 -351 -6 -196 60 -291 247 -276 547
10 190 50 296 147 383 78 70 142 91 275 90 81 -1 131 -7 190 -23 44 -12 89
-24 100 -27 17 -4 25 8 52 79 36 91 63 196 63 244 0 30 -2 31 -87 57 -49 15
-112 31 -140 37 -61 11 -272 20 -323 14z" />
    <path
      d="M7041 4280 c-306 -43 -519 -236 -600 -543 -35 -135 -44 -229 -38
-416 4 -143 10 -194 30 -271 64 -247 181 -402 372 -495 127 -62 221 -79 399
-72 115 4 156 10 221 31 207 67 366 227 440 446 93 273 81 665 -28 912 -85
191 -256 338 -452 388 -90 23 -254 32 -344 20z m237 -396 c130 -54 193 -219
193 -509 0 -337 -90 -505 -281 -522 -131 -12 -243 58 -289 181 -73 195 -65
563 15 718 21 41 82 107 115 124 70 36 173 39 247 8z" />
    <path
      d="M3580 4263 c-19 -2 -45 -6 -57 -8 l-23 -5 0 -523 c0 -540 8 -696 40
-824 54 -210 186 -342 400 -400 50 -13 104 -17 235 -17 148 0 181 3 252 23
160 45 267 134 334 276 72 154 72 157 76 848 4 588 3 618 -14 625 -24 9 -350
9 -385 -1 l-28 -7 0 -548 c0 -310 -5 -577 -10 -617 -15 -99 -49 -165 -102
-195 -36 -21 -56 -25 -123 -24 -134 0 -187 42 -221 174 -14 55 -17 151 -23
640 l-6 575 -55 7 c-58 6 -230 7 -290 1z" />
    <path
      d="M727 4253 c-3 -5 -10 -44 -17 -88 -11 -73 -9 -146 7 -247 l6 -38 203
0 204 0 0 -684 0 -683 48 -6 c131 -17 188 -19 281 -7 l101 12 0 684 0 684 205
0 204 0 8 38 c10 48 10 256 0 305 l-8 37 -619 0 c-340 0 -621 -3 -623 -7z" />
    <path
      d="M4956 2525 c-81 -113 -203 -208 -336 -261 -219 -89 -519 -104 -775
-39 l-98 25 -126 -22 c-176 -31 -498 -31 -645 -1 l-98 20 588 -589 c614 -613
642 -638 722 -638 96 0 77 -16 715 619 328 328 597 599 597 603 0 5 -5 8 -11
8 -6 0 -45 14 -87 32 -109 45 -236 134 -325 227 l-76 80 -45 -64z" />
  </g>
</svg>